# xmcd
#
# Track frame offsets: 
#        150
#        20213
#        52416
#        70458
#        88646
#        110318
#        138697
#        160556
#        181956
#        204135
#        220014
#        239829
#
# Disc length: 3540 seconds
#
# Revision: 1
# Processed by: cddbd v1.5.2PL0 Copyright (c) Steve Scherf et al.
# Submitted via: ExactAudioCopy v0.99pb5
#
DISCID=b20dd20c
DTITLE=Ray Manzarek and Roy Rogers - Translucent Blues
DYEAR=2011
DGENRE=Blues
TTITLE0=Hurricane
TTITLE1=River Of Madness
TTITLE2=Game Of Skill
TTITLE3=Fives And Ones
TTITLE4=Kick
TTITLE5=Tension
TTITLE6=Blues In My Shoes
TTITLE7=New Dodge City Blues
TTITLE8=Greenhouse Blues
TTITLE9=Those Hits Just Keep On Comin'
TTITLE10=As You Leave
TTITLE11=An Organ, A Guitar And A Chicken Wing
EXTD=
EXTT0=
EXTT1=
EXTT2=
EXTT3=
EXTT4=
EXTT5=
EXTT6=
EXTT7=
EXTT8=
EXTT9=
EXTT10=
EXTT11=
PLAYORDER=
